<svg xmlns="http://www.w3.org/2000/svg" viewBox="0 0 127.99 97.02"><defs><style>.cls-1{fill:#9d9d9d;}.cls-2{fill:#e0e0e0;}</style></defs><title>Upload icons</title><g id="Layer_2" data-name="Layer 2"><g id="Main_Template_BG" data-name="Main Template BG"><path id="Forma_1" data-name="Forma 1" class="cls-1" d="M57.11,21.56a.91.91,0,0,0-.89-.94h-.16a2.47,2.47,0,0,0-.58,0l-.07,1.78a2.23,2.23,0,0,0,.46.05,1,1,0,0,0,1.23-.94Zm4.32-.7a2.9,2.9,0,0,0-.63,0l-.15,3.94a2.59,2.59,0,0,0,.48,0,1.88,1.88,0,0,0,2.16-2,1.75,1.75,0,0,0-1.86-2ZM70.15.53,56.48,0a3.59,3.59,0,0,0-3.76,3.42l-.48,13.15h-.35a1.45,1.45,0,0,0-1.51,1.37h0l-.32,8.69a1.45,1.45,0,0,0,1.41,1.49h.35l-.06,1.59a3.6,3.6,0,0,0,3.49,3.7l18.66.72a3.59,3.59,0,0,0,3.75-3.42l.79-21.44Zm-16,19.12A11.68,11.68,0,0,1,56,19.6a3,3,0,0,1,1.86.55,1.76,1.76,0,0,1,.6,1.42A1.91,1.91,0,0,1,57.87,23a2.88,2.88,0,0,1-2,.56,3.75,3.75,0,0,1-.47,0l-.08,2.16-1.38-.05ZM74,32l-18.66-.72A1.4,1.4,0,0,1,54,29.81L54,28.21l17.39.67a1.45,1.45,0,0,0,1.51-1.37h0l.32-8.69a1.45,1.45,0,0,0-1.41-1.49l-17.39-.67L54.95,3.5A1.39,1.39,0,0,1,56.4,2.18l12.84.48-.17,4.66a2.5,2.5,0,0,0,2.42,2.56l4.65.17-.71,20.58A1.39,1.39,0,0,1,74,32h0ZM59.22,25.77l.22-5.92a12.76,12.76,0,0,1,1.88-.05,4,4,0,0,1,2.49.74,2.65,2.65,0,0,1,1,2.31,3,3,0,0,1-1.11,2.4,4.46,4.46,0,0,1-2.86.67A12.29,12.29,0,0,1,59.22,25.77ZM69.3,22.65l0,1.11-2.21-.09L67,26.1,65.57,26l.22-6,3.75.15,0,1.12-2.36-.09-.05,1.38Z"/><path id="Forma_1-2" data-name="Forma 1-2" class="cls-1" d="M85.8,60.26A23.26,23.26,0,0,0,62.89,41.84,22.68,22.68,0,0,0,42.45,54.12c-9.6,1.23-16.72,8.9-16.72,18.42A18.55,18.55,0,0,0,44.31,91H84.57A15.27,15.27,0,0,0,100,75.9q0-.15,0-.3A15.68,15.68,0,0,0,85.8,60.26ZM69.08,79.53v11.1H56.7V79.53H47.41L62.89,64.18,78.37,79.53H69.08Z"/><path class="cls-2" d="M57,90H69v7H57Z"/><path id="Forma_1-3" data-name="Forma 1-3" class="cls-1" d="M126.83,39.45A.7.7,0,0,0,127,39L128,28.53h0a.69.69,0,0,0,0-.18v-.05a.72.72,0,0,0-.05-.14l0,0a.67.67,0,0,0-.1-.13L116,15.76a1.42,1.42,0,0,0-2,0L90,38.8a1.41,1.41,0,0,0,0,2L106,57.48a1.42,1.42,0,0,0,2,0l18.74-18ZM98.41,46.06a9.49,9.49,0,0,1-2.33-1.71A4.72,4.72,0,0,1,94.52,41a4.17,4.17,0,0,1,1.42-3c2.07-2,4.68-1.62,6.62.39a5.81,5.81,0,0,1,1.34,2l-1.4.79a4.7,4.7,0,0,0-1.11-1.68,2.6,2.6,0,0,0-4-.1A2.78,2.78,0,0,0,98,43.88l1.3-1.24-.91-.95,1.1-1.05,2.2,2.28Zm2.1,2.75-1.34-1.39,6.2-6,1.34,1.39Zm9.83.1-2.27-2.36-1.42,1.36,2.12,2.2-1.14,1.1L105.5,49,103,51.4,101.67,50l6.2-6,3.62,3.75ZM98.65,32.43,115,16.74l11.3,11.71-5.23,5a.7.7,0,0,0,0,1h0l4.31,4.47L114.75,49.12Zm15.7,9.36.6-5.65,1.41,1.46.56-5.21,1.46,1.51.46-4.28.9.93.35-3.29-3.17.36.91.94-4.13.47,1.43,1.48-5,.58,1.33,1.38L106,33.1l3.87,4L106,40.77l.64.66,3.8-3.65Z"/><path id="Forma_1-4" data-name="Forma 1-4" class="cls-1" d="M25.33,39.3a3.71,3.71,0,0,0-.59.56l1.46,1.83a3.33,3.33,0,0,0,.55-.37c.82-.65,1-1.43.52-2.07S26.1,38.69,25.33,39.3ZM19.44,44a3.7,3.7,0,0,0-.6.56l1.46,1.83a3.27,3.27,0,0,0,.55-.37c.82-.65,1-1.43.52-2.07S20.21,43.37,19.44,44Zm5.8-26.47a.61.61,0,0,0-.4-.22l-10.1-1.34H14.5l-.15,0,0,0-.14.09L.57,26.93a1.38,1.38,0,0,0-.31,1.92l19.09,24a1.38,1.38,0,0,0,1.94.13L39.87,38.23a1.38,1.38,0,0,0,.31-1.92L25.3,17.57l-.05-.05ZM23.41,44.66a4.33,4.33,0,0,1-1.7,2.42,5.67,5.67,0,0,1-.55.39l1.76,2.22L21.39,50.9l-4.86-6.12a17.84,17.84,0,0,1,2-1.79A4.51,4.51,0,0,1,21,41.83a2.24,2.24,0,0,1,1.87.85,2.41,2.41,0,0,1,.55,2ZM29.3,40a4.32,4.32,0,0,1-1.7,2.42,5.67,5.67,0,0,1-.55.39L28.81,45l-1.53,1.22L22.42,40.1a17.75,17.75,0,0,1,2-1.79,4.51,4.51,0,0,1,2.48-1.16,2.24,2.24,0,0,1,1.87.86,2.41,2.41,0,0,1,.54,2Zm4.61-7.23L32,34.23l4,5L34.5,40.49l-4-5-1.84,1.46-.94-1.18L33,31.57l.94,1.18h0ZM14.36,44.3,1.38,28l13-10.37,4.16,5.23a.69.69,0,0,0,1,.06l5-4,8.42,10.6Zm-.1-17.41a5.37,5.37,0,1,0,7.94.52l-4.61,3.67Zm3.43,3h0l4.61-3.67a5.1,5.1,0,0,0-3.78-1.89Zm-.63-.7L18,23.66A6,6,0,0,0,13.74,25l3.33,4.18h0Z"/></g></g></svg>