<svg xmlns="http://www.w3.org/2000/svg" viewBox="0 0 14.72 28.66"><defs><style>.cls-1{fill:#4caf50;}</style></defs><title>facebook icon</title><g id="Layer_2" data-name="Layer 2"><g id="Page6"><path id="facebook" class="cls-1" d="M9.64,28.66H3.42V15.81H0V9.91H3.42V6.6C3.42,3.55,5.34,0,10.75,0a31.93,31.93,0,0,1,3.36.18l.57.08-.14,5.52h-.64s-1.42,0-3,0c-1.15,0-1.31.29-1.31,1.41V9.91h5.09l-.28,5.9H9.64V28.66h0ZM4.71,27.39H8.35V14.54h4.87l.16-3.36h-5v-4c0-1.33.31-2.68,2.59-2.68h2.35l.08-3.11c-.57-.05-1.51-.11-2.62-.11-4.45,0-6,2.74-6,5.32v4.58H1.28v3.36H4.71V27.39Z"/></g></g></svg>