<svg xmlns="http://www.w3.org/2000/svg" viewBox="0 0 196.19 44.28"><defs><style>.cls-1{fill:#fff;}.cls-2{fill:#55b03e;}</style></defs><title>Get in touch button</title><g id="Layer_2" data-name="Layer 2"><g id="Page6"><path id="Rounded_Rectangle_4" data-name="Rounded Rectangle 4" class="cls-1" d="M22.14,0H174a22.14,22.14,0,0,1,22.14,22.14h0A22.14,22.14,0,0,1,174,44.28H22.14A22.14,22.14,0,0,1,0,22.14H0A22.14,22.14,0,0,1,22.14,0Z"/><path id="GET_IN_TOUCH-2" data-name="GET IN TOUCH-2" class="cls-2" d="M57.19,26C55.26,26,54,24.4,54,22s1.21-4,3.15-4a2.83,2.83,0,0,1,2.71,1.85L61,19.16a4,4,0,0,0-3.78-2.24c-2.74,0-4.46,2.09-4.46,5.08,0,3.2,1.83,5.08,4.43,5.08a3.34,3.34,0,0,0,2.9-1.43v1.26h1.2V21.74H56.7v1.14h3.38A3.54,3.54,0,0,1,59.55,25,2.88,2.88,0,0,1,57.19,26Zm13.11-.22H64.73V22.43h4.81V21.29H64.73V18.23H70V17.09H63.46v9.82H70.3V25.77Zm.33-7.53h3v8.67h1.27V18.23h3V17.09h-7.3v1.14Zm13.71-1.14H83.08v9.82h1.27V17.09Zm3.51,0H86.6v9.82h1.27V20.33c0-.58,0-1.21,0-1.21h0c.06.11.49.79.77,1.18l4.59,6.61h1.26V17.1H93.2v6.12c0,.87,0,1.59,0,1.59h0c-.06-.1-.43-.68-.74-1.11ZM99.6,18.23h3v8.67h1.27V18.23h3V17.09h-7.3v1.14ZM106.94,22c0,3,1.72,5.08,4.46,5.08S115.84,25,115.84,22s-1.72-5.08-4.45-5.08S106.94,19,106.94,22Zm1.33,0c0-2.41,1.18-4,3.13-4s3.12,1.56,3.12,4-1.18,4-3.12,4-3.13-1.56-3.13-4Zm13,5.1a3.44,3.44,0,0,0,3.2-1.54,4.78,4.78,0,0,0,.5-2.68V17.1h-1.26v5.76a4.29,4.29,0,0,1-.36,2.16,2.74,2.74,0,0,1-4.16,0,4.29,4.29,0,0,1-.36-2.16V17.1h-1.27v5.77a4.77,4.77,0,0,0,.5,2.68,3.44,3.44,0,0,0,3.21,1.54Zm12.59-3A2.84,2.84,0,0,1,131.11,26c-1.95,0-3.15-1.57-3.15-4s1.2-4,3.15-4a2.8,2.8,0,0,1,2.7,1.86l1.08-.74a4.1,4.1,0,0,0-3.78-2.24c-2.76,0-4.47,2.09-4.47,5.08,0,3.2,1.88,5.08,4.47,5.08A4.08,4.08,0,0,0,135,24.68Zm10.31-7h-1.27v4.16H137.7V17.1h-1.27v9.82h1.27V22.39h5.17v4.52h1.27V17.09Z"/></g></g></svg>