<svg xmlns="http://www.w3.org/2000/svg" viewBox="0 0 29.11 28.38"><defs><style>.cls-1{fill:#4caf50;}</style></defs><title>linkedin icon</title><g id="Layer_2" data-name="Layer 2"><g id="Page6"><path id="linkedin" class="cls-1" d="M3.93,0A3.84,3.84,0,0,0,1.16,6.59,3.76,3.76,0,0,0,3.88,7.7H4A3.7,3.7,0,0,0,6.6,6.59,3.83,3.83,0,0,0,7.77,3.85a3.6,3.6,0,0,0-1.12-2.7A3.68,3.68,0,0,0,3.93,0Zm2,5.92a2.67,2.67,0,0,1-2,.81,3,3,0,0,1-2-.81A2.79,2.79,0,0,1,1,3.85a2.87,2.87,0,0,1,.87-2.07A2.92,2.92,0,0,1,6.79,3.85a2.79,2.79,0,0,1-.88,2.07Zm-.1,2.74H1.89A1.41,1.41,0,0,0,.48,10.07V26.94a1.48,1.48,0,0,0,1.46,1.44H5.82A1.48,1.48,0,0,0,7.28,27V10.1A1.48,1.48,0,0,0,5.82,8.66ZM6.31,27a.48.48,0,0,1-.49.44H1.94a.52.52,0,0,1-.49-.48V10.1a.48.48,0,0,1,.44-.48H5.82a.52.52,0,0,1,.49.48Zm16-18.8h-1a6.57,6.57,0,0,0-4.85,2.11V9.62a1,1,0,0,0-1-1H10.62a1,1,0,0,0-1,.91V27.51a1,1,0,0,0,1,.87H16a1,1,0,0,0,1-.87V17.12a2.72,2.72,0,0,1,2.61-2.83h.06a2.86,2.86,0,0,1,2,.81,2.54,2.54,0,0,1,.68,2V27.42a1,1,0,0,0,1,1h4.85a1,1,0,0,0,1-1V15a6.71,6.71,0,0,0-6.59-6.83h-.2Zm5.82,19.19,0,.05H23.34l0-10.34a3.53,3.53,0,0,0-.92-2.65,3.84,3.84,0,0,0-2.72-1.11A3.73,3.73,0,0,0,16,17.12v10.3H10.68V9.62h4.8l0,.05v3l1.31-1.3,0-.05a5.54,5.54,0,0,1,4.46-2.21h1a5.77,5.77,0,0,1,5.77,5.76s0,.08,0,.11V27.37Z"/></g></g></svg>