<svg xmlns="http://www.w3.org/2000/svg" viewBox="0 0 52.36 52.65"><defs><style>.cls-1{fill:#4caf50;}</style></defs><title>Notifications icon</title><g id="Layer_2" data-name="Layer 2"><g id="Page6"><path id="Forma_1-2" data-name="Forma 1-2" class="cls-1" d="M50.31,39.62c-4.71-4.11-9.07-9.91-9.07-24.39a15.06,15.06,0,1,0-30.12-.35q0,.17,0,.35c0,14.5-4.36,20.29-9.07,24.4A6.06,6.06,0,0,0,0,44.17,1.72,1.72,0,0,0,1.71,45.9H18a8.37,8.37,0,0,0,16.42,0H50.65a1.72,1.72,0,0,0,1.71-1.73A6.05,6.05,0,0,0,50.31,39.62ZM26.18,49.18a5,5,0,0,1-4.66-3.28h9.32a5,5,0,0,1-4.66,3.28ZM4.1,42.44a1.89,1.89,0,0,1,.2-.2c7.18-6.26,10.24-14.34,10.24-27a11.64,11.64,0,0,1,23.28,0c0,12.66,3.06,20.74,10.25,27l.2.2H4.1Z"/></g></g></svg>