<svg xmlns="http://www.w3.org/2000/svg" viewBox="0 0 68.01 63"><defs><style>.cls-1{fill:#4caf50;}</style></defs><title>Packaging icon</title><g id="Layer_2" data-name="Layer 2"><g id="Page6"><path id="Forma_1" data-name="Forma 1" class="cls-1" d="M67.7,18.08,60.9,8.73a2,2,0,0,0-1.05-.55L34.3.11a.91.91,0,0,0-.87,0L8,8.21A4.32,4.32,0,0,0,6.73,9.26L.32,18.08A1.55,1.55,0,0,0,.9,20.42l5.77,2.4V50.88a1.41,1.41,0,0,0,.87,1.32L33.29,62.85a1.49,1.49,0,0,0,1.3,0L60.32,52.2a1.27,1.27,0,0,0,.87-1.32v-28l5.93-2.45a1.56,1.56,0,0,0,.57-2.34Zm-63.91.29,4.89-6.82,23.09,9.56-5,6.91Zm28.64,41L9.57,49.86V24l17.06,7.08a1.42,1.42,0,0,0,1.73-.44l4.05-5.56ZM34,18.71,12.55,9.83,33.87,3,55.41,9.85ZM58.3,49.86,35.45,59.35V24.88l4.19,5.76a1.42,1.42,0,0,0,1.73.43l16.92-7v25.8h0ZM41.38,28l-5.07-7,23-9.49,5.07,7Z"/></g></g></svg>