<svg xmlns="http://www.w3.org/2000/svg" viewBox="0 0 29.09 23.48"><defs><style>.cls-1{fill:#4caf50;}</style></defs><title>twitter icon</title><g id="Layer_2" data-name="Layer 2"><g id="Page6"><path id="twitter" class="cls-1" d="M28.93,2.64a.67.67,0,0,0-.59-.14l-1,.34A6.78,6.78,0,0,0,28.58.74a.51.51,0,0,0-.1-.59.52.52,0,0,0-.59-.1,34.7,34.7,0,0,1-3.55,1.37c0,.05,0,0-.1,0A10.34,10.34,0,0,0,20.13,0a6.5,6.5,0,0,0-6.32,6.56v.19c-5.13-1-7.95-2.44-11-5.62L2.31.64,2,1.22c-1.68,3.18-.49,6.07,1.43,8a4.08,4.08,0,0,1-2-.88A.58.58,0,0,0,.48,9a9.65,9.65,0,0,0,4.29,5.29,4,4,0,0,1-2.37-.59.69.69,0,0,0-.69.05.52.52,0,0,0-.2.63A5.93,5.93,0,0,0,6.9,18.49,12.22,12.22,0,0,1,.68,20.06.7.7,0,0,0,0,20.5a.67.67,0,0,0,.2.73C2,22.65,6,23.48,10.85,23.48c8.69,0,15.8-7.68,15.8-17.12V6.21a4.82,4.82,0,0,0,2.42-3A.64.64,0,0,0,28.93,2.64ZM26,5.43l-.3.1v.83c0,8.9-6.66,16.14-14.81,16.14-4.49,0-7.5-.73-9.13-1.51a12,12,0,0,0,6.91-2.5l1.23-.88H8.39c-2.81,0-4.54-.78-5.53-2.64a7.89,7.89,0,0,0,2.86.24,9.4,9.4,0,0,1,1.18-.05l.15-1A8.9,8.9,0,0,1,1.87,9.74a7.5,7.5,0,0,0,3.06.53H6.47L5.23,9.39c-1-.73-4.1-3.32-2.62-7,3.16,3.08,6.17,4.5,11.6,5.48l.59.1V6.56A5.51,5.51,0,0,1,20.14,1,9.17,9.17,0,0,1,23.7,2.25a1.12,1.12,0,0,0,.89.1c.74-.25,1.63-.59,2.62-1a8,8,0,0,1-1.83,2.06.58.58,0,0,0-.15.68.49.49,0,0,0,.64.24l1.93-.63A3.49,3.49,0,0,1,26,5.43Z"/></g></g></svg>