<svg xmlns="http://www.w3.org/2000/svg" viewBox="0 0 245.5 168.78"><defs>
    <style>

        #Main_Template_BG >.cls-1
        {
            fill:#fff;
        }
        #Main_Template_BG > .cls-2{
            fill:#c1c1c1;
        }

        #Main_Template_BG:hover >.cls-1
        {
            fill:#fff;
            stroke:#4caf50;
            stroke-width:2.08px;
        }
        #Main_Template_BG:hover > .cls-2{
            fill:#4caf50;
        }
    </style></defs><title>Template 1</title><g id="Layer_2" data-name="Layer 2"><g id="Main_Template_BG" data-name="Main Template BG"><path id="Rounded_Rectangle_3_copy_5" data-name="Rounded Rectangle 3 copy 5" class="cls-1" d="M6.39,1H239.1c3,0,5.35,1.92,5.35,4.29V163.45c0,2.37-2.39,4.29-5.35,4.29H6.39c-3,0-5.35-1.92-5.35-4.29V5.33C1,3,3.44,1,6.39,1Z"/><circle class="cls-2" cx="109.13" cy="158.92" r="2"/><circle id="Ellipse_2_copy" data-name="Ellipse 2 copy" class="cls-2" cx="120.57" cy="158.92" r="2"/><circle id="Ellipse_2_copy_2" data-name="Ellipse 2 copy 2" class="cls-2" cx="132.18" cy="158.92" r="2.02"/><path id="Rounded_Rectangle_5-2" data-name="Rounded Rectangle 5-2" class="cls-2" d="M63.53,21.27H181.79c1.92,0,3.48,1.08,3.48,2.42V61.53c0,1.33-1.56,2.42-3.48,2.42H63.53c-1.92,0-3.48-1.08-3.48-2.42V23.68C60.05,22.35,61.61,21.27,63.53,21.27Z"/><path id="Rounded_Rectangle_6" data-name="Rounded Rectangle 6" class="cls-2" d="M63.53,88.1h51c1.92,0,3.48,1.08,3.48,2.42v25c0,1.33-1.56,2.42-3.48,2.42h-51c-1.92,0-3.48-1.08-3.48-2.42v-25C60.05,89.18,61.61,88.1,63.53,88.1Z"/><path id="Rounded_Rectangle_6_copy" data-name="Rounded Rectangle 6 copy" class="cls-2" d="M130.78,88.1h51c1.92,0,3.48,1.08,3.48,2.42v25c0,1.33-1.56,2.42-3.48,2.42h-51c-1.92,0-3.48-1.08-3.48-2.42v-25C127.3,89.18,128.86,88.1,130.78,88.1Z"/><path class="cls-2" d="M74,9.75h98.56v.8H74Z"/><path id="Rectangle_1_copy" data-name="Rectangle 1 copy" class="cls-2" d="M74,14.58h98.56v.8H74Z"/><path id="Rectangle_1_copy_3" data-name="Rectangle 1 copy 3" class="cls-2" d="M61.21,126.76h55.65v.8H61.21Z"/><path id="Rectangle_1_copy_4" data-name="Rectangle 1 copy 4" class="cls-2" d="M61.21,132.89h55.65v.8H61.21Z"/><path id="Rectangle_1_copy_5" data-name="Rectangle 1 copy 5" class="cls-2" d="M61.21,137.22h55.65V138H61.21Z"/><path id="Rectangle_1_copy_6" data-name="Rectangle 1 copy 6" class="cls-2" d="M61.21,143.36h45.22v.81H61.21v-.8Z"/><path id="Rectangle_1_copy_3-2" data-name="Rectangle 1 copy 3-2" class="cls-2" d="M128.46,126.76h55.65v.8H128.46Z"/><path id="Rectangle_1_copy_4-2" data-name="Rectangle 1 copy 4-2" class="cls-2" d="M128.46,132.89h55.65v.8H128.46Z"/><path id="Rectangle_1_copy_5-2" data-name="Rectangle 1 copy 5-2" class="cls-2" d="M128.46,137.22h55.65V138H128.46Z"/><path id="Rectangle_1_copy_6-2" data-name="Rectangle 1 copy 6-2" class="cls-2" d="M128.46,143.36h45.22v.81H128.46v-.8Z"/><path id="Rectangle_1_copy_2" data-name="Rectangle 1 copy 2" class="cls-2" d="M83.39,69.86h79.3v1.29H83.39Z"/></g></g></svg>