<svg xmlns="http://www.w3.org/2000/svg" viewBox="0 0 246.29 169.21"><defs>
    <style>
        .cls-1
        {
            fill:#fff;
            stroke:#636363;
            stroke-width:0.83px;
        }
        .cls-2{
            fill:#c1c1c1;
        }
        .cls-3{
            fill:#8d8d8d;
        }
        #Main_Template_BG.cls-1:hover {
            fill:#fff;
            stroke:#4caf50;
            stroke-width:2.08px;
        }
        #Main_Template_BG.cls-2:hover{
            fill:#4caf50;
        }
        #Main_Template_BG:hover > .cls-3 {
            fill:#4caf50;
        }
    </style></defs><title>Template 2</title><g id="Layer_2" data-name="Layer 2"><g id="Main_Template_BG" data-name="Main Template BG"><path id="Rounded_Rectangle_3_copy_4" data-name="Rounded Rectangle 3 copy 4" class="cls-1" d="M5.81.42H240.48c3,0,5.39,1.94,5.39,4.34v159.7c0,2.4-2.42,4.34-5.39,4.34H5.81c-3,0-5.4-1.94-5.4-4.34V4.75C.42,2.35,2.83.42,5.81.42Z"/><circle id="Ellipse_2_copy_5" data-name="Ellipse 2 copy 5" class="cls-2" cx="109.57" cy="154.98" r="1.75"/><path id="Ellipse_2_copy_5-2" data-name="Ellipse 2 copy 5-2" class="cls-2" d="M120,153.23a1.75,1.75,0,1,1-1.74,1.75h0a1.74,1.74,0,0,1,1.74-1.75Z"/><path id="Ellipse_2_copy_5-3" data-name="Ellipse 2 copy 5-3" class="cls-2" d="M129.63,153.23a1.75,1.75,0,1,1-1.74,1.75h0A1.74,1.74,0,0,1,129.63,153.23Z"/><path id="Rounded_Rectangle_6_copy_3" data-name="Rounded Rectangle 6 copy 3" class="cls-3" d="M69.88,27h44.4c1.67,0,3,.94,3,2.1V50.82c0,1.16-1.35,2.1-3,2.1H69.88c-1.67,0-3-.94-3-2.1V29.1C66.85,27.94,68.21,27,69.88,27Z"/><path id="Rounded_Rectangle_6_copy_3-2" data-name="Rounded Rectangle 6 copy 3-2" class="cls-3" d="M128.41,27h44.4c1.67,0,3,.94,3,2.1V50.82c0,1.16-1.35,2.1-3,2.1h-44.4c-1.67,0-3-.94-3-2.1V29.1C125.38,27.94,126.74,27,128.41,27Z"/><path id="Rectangle_1_copy_8" data-name="Rectangle 1 copy 8" class="cls-2" d="M79,17h85.78v.7H79Z"/><path id="Rectangle_1_copy_8-2" data-name="Rectangle 1 copy 8-2" class="cls-2" d="M66.85,60.66h48.56v.7H66.85Z"/><path id="Rectangle_1_copy_8-3" data-name="Rectangle 1 copy 8-3" class="cls-2" d="M66.85,64.85h48.56v.7H66.85Z"/><path id="Rectangle_1_copy_8-4" data-name="Rectangle 1 copy 8-4" class="cls-2" d="M66.85,69.39H100v.9H66.85Z"/><g id="Group_2_copy_4" data-name="Group 2 copy 4"><path id="Rectangle_1_copy_8-5" data-name="Rectangle 1 copy 8-5" class="cls-2" d="M126.14,60.66H174.7v.7H126.14Z"/><path id="Rectangle_1_copy_8-6" data-name="Rectangle 1 copy 8-6" class="cls-2" d="M126.14,64.85H174.7v.7H126.14Z"/><path id="Rectangle_1_copy_8-7" data-name="Rectangle 1 copy 8-7" class="cls-2" d="M126.14,69.39h33.14v.9H126.14Z"/></g><path id="Rounded_Rectangle_6_copy_4" data-name="Rounded Rectangle 6 copy 4" class="cls-3" d="M68.68,85.13H95.53a2,2,0,0,1,1.83,2.12v21.91a2,2,0,0,1-1.83,2.12H68.68a2,2,0,0,1-1.83-2.12V87.25A2,2,0,0,1,68.68,85.13Z"/><g id="Group_2_copy" data-name="Group 2 copy"><path id="Rectangle_1_copy_8-8" data-name="Rectangle 1 copy 8-8" class="cls-2" d="M67.38,119.08H96.74v.71H67.38Z"/><path id="Rectangle_1_copy_8-9" data-name="Rectangle 1 copy 8-9" class="cls-2" d="M67.38,123.31H96.74V124H67.38v-.71Z"/><path id="Rectangle_1_copy_8-10" data-name="Rectangle 1 copy 8-10" class="cls-2" d="M67.38,126.75h20v.9h-20Z"/></g><path id="Rounded_Rectangle_6_copy_5" data-name="Rounded Rectangle 6 copy 5" class="cls-3" d="M107.92,85.13h26.85a2,2,0,0,1,1.83,2.12v21.91a2,2,0,0,1-1.83,2.12H107.92a2,2,0,0,1-1.83-2.12V87.25A2,2,0,0,1,107.92,85.13Z"/><g id="Group_2_copy_2" data-name="Group 2 copy 2"><path id="Rectangle_1_copy_8-11" data-name="Rectangle 1 copy 8-11" class="cls-2" d="M106.61,119.08H136v.71H106.61Z"/><path id="Rectangle_1_copy_8-12" data-name="Rectangle 1 copy 8-12" class="cls-2" d="M106.61,123.31H136V124H106.61v-.71Z"/><path id="Rectangle_1_copy_8-13" data-name="Rectangle 1 copy 8-13" class="cls-2" d="M106.61,126.75h20v.9h-20Z"/></g><path id="Rounded_Rectangle_6_copy_6" data-name="Rounded Rectangle 6 copy 6" class="cls-3" d="M146.28,85.13h26.85A2,2,0,0,1,175,87.25v21.91a2,2,0,0,1-1.83,2.12H146.28a2,2,0,0,1-1.83-2.12V87.25A2,2,0,0,1,146.28,85.13Z"/><g id="Group_2_copy_3" data-name="Group 2 copy 3"><path id="Rectangle_1_copy_8-14" data-name="Rectangle 1 copy 8-14" class="cls-2" d="M145,119.08h29.37v.71H145Z"/><path id="Rectangle_1_copy_8-15" data-name="Rectangle 1 copy 8-15" class="cls-2" d="M145,123.31h29.37V124H145v-.71Z"/><path id="Rectangle_1_copy_8-16" data-name="Rectangle 1 copy 8-16" class="cls-2" d="M145,126.75h20v.9H145Z"/></g></g></g></svg>