<svg xmlns="http://www.w3.org/2000/svg" viewBox="0 0 196.19 44.28"><defs><style>.cls-1{fill:#fff;}.cls-2{fill:#55b03e;}</style></defs><title>Join Privtae Beta Button</title><g id="Layer_2" data-name="Layer 2"><g id="Page6"><path id="Rounded_Rectangle_4" data-name="Rounded Rectangle 4" class="cls-1" d="M22.14,0H174a22.14,22.14,0,0,1,22.14,22.14h0A22.14,22.14,0,0,1,174,44.28H22.14A22.14,22.14,0,0,1,0,22.14H0A22.14,22.14,0,0,1,22.14,0Z"/><path id="Join_Private_Beta" data-name="Join Private Beta" class="cls-2" d="M37.84,15.59V24c0,1.18,0,1.89-.51,2.3a2.33,2.33,0,0,1-1.45.42,4.53,4.53,0,0,1-1.34-.22V28a5.89,5.89,0,0,0,1.5.16,3.28,3.28,0,0,0,3-1.23A3.33,3.33,0,0,0,39.43,25V15.58H37.84Zm3.48,8c0,2.75,1.65,4.49,4.11,4.49s4.11-1.74,4.11-4.49-1.68-4.55-4.11-4.55-4.11,1.78-4.11,4.55Zm1.54,0c0-2.07,1-3.3,2.57-3.3S48,21.53,48,23.61,47,26.87,45.43,26.87,42.86,25.68,42.86,23.61Zm10.29-4.33h-1.5v8.63h1.5Zm0-3.7h-1.5V17.5h1.5Zm9.93,6.92a4.18,4.18,0,0,0-.54-2.32,2.71,2.71,0,0,0-2.43-1.1,3,3,0,0,0-2.77,1.49V19.28h-1.5v8.63h1.5v-5a2.31,2.31,0,0,1,2.09-2.51h.19c1.27,0,2,.62,2,2.48v5h1.5v-5.4Zm9.17.14H75a5.79,5.79,0,0,0,3.17-.6,3.48,3.48,0,0,0-.47-6.11,6.35,6.35,0,0,0-2.5-.36H70.63V27.9h1.61V22.65Zm0-5.65h3a5,5,0,0,1,1.74.22,2.1,2.1,0,0,1,0,3.8,5,5,0,0,1-1.74.22h-3Zm13.88,2.12a2,2,0,0,0-.49-.05A2.71,2.71,0,0,0,83,20.91V19.28h-1.5v8.63H83V23.39a2.68,2.68,0,0,1,2.44-2.89h.1a3,3,0,0,1,.56.05V19.12Zm3,.16h-1.5V27.9h1.5V19.28Zm0-3.7h-1.5V17.5h1.5Zm9.1,3.7H96.7l-1.78,5.18c-.27.76-.45,1.4-.51,1.58h0c-.05-.18-.24-.82-.49-1.52l-1.79-5.24H90.53l3.08,8.63H95Zm8.5,7.7h-.2a.64.64,0,0,1-.74-.78V21.81c0-2.16-1.27-2.72-3.22-2.72S98.94,20,99,22l1.43.16c0-1,.49-1.81,2-1.81s1.83.6,1.83,1.5v.25c0,.36-.18.43-.72.53l-1.45.24A4.81,4.81,0,0,0,99.29,24a2.19,2.19,0,0,0-.53,1.54c0,1.74,1.23,2.59,3,2.59a2.78,2.78,0,0,0,2.61-1.2h0a1.19,1.19,0,0,0,1.45,1.16,4.52,4.52,0,0,0,.85-.07V27Zm-2.4-1.85c0,1.34-1.05,1.83-2.17,1.83a1.56,1.56,0,0,1-1.79-1.5c0-1.05,1-1.27,2-1.49,1.4-.29,1.78-.36,1.92-.42Zm2.86-4.71h1.67v6a2.52,2.52,0,0,0,.11.83,1.67,1.67,0,0,0,1.79.91,6.2,6.2,0,0,0,1.5-.18V26.76a5.36,5.36,0,0,1-1,.11.75.75,0,0,1-.78-.29,1.62,1.62,0,0,1-.13-.82V20.42h1.9V19.28h-1.9V15.84l-1.5.33v3.12h-1.67v1.14Zm12.94,4.93a2.93,2.93,0,0,1-2.57,1.47,2.7,2.7,0,0,1-2.73-2.67q0-.11,0-.21h6.45v-.33c0-2.57-1.29-4.53-3.88-4.53-2.37,0-4.1,1.83-4.1,4.47,0,2.88,1.65,4.57,4.11,4.57a4.39,4.39,0,0,0,3.81-2Zm-2.74-5.05c1.36,0,2.19.92,2.32,2.45h-4.83a2.53,2.53,0,0,1,2.52-2.44Zm12.54,1.92h3.28a4.19,4.19,0,0,1,2.19.38,2,2,0,0,1,.91,1.72,2.1,2.1,0,0,1-1.2,1.94,5.1,5.1,0,0,1-1.9.22h-3.28V22.21Zm6-3.28a1.73,1.73,0,0,1-1,1.65,4.61,4.61,0,0,1-1.83.25h-3.12V17H133a4.55,4.55,0,0,1,1.85.23,1.75,1.75,0,0,1,1,1.67Zm-2.61,9a5.57,5.57,0,0,0,2.92-.54,3.14,3.14,0,0,0,1.68-3,3,3,0,0,0-2.28-3,2.59,2.59,0,0,0,1.87-2.59A2.9,2.9,0,0,0,135.81,16a5.64,5.64,0,0,0-2.7-.45h-4.82V27.9h4.95Zm12.7-2.55a2.93,2.93,0,0,1-2.57,1.47,2.69,2.69,0,0,1-2.74-2.65q0-.12,0-.24h6.45v-.33c0-2.57-1.29-4.53-3.88-4.53-2.37,0-4.1,1.83-4.1,4.47,0,2.88,1.65,4.57,4.11,4.57a4.39,4.39,0,0,0,3.8-2Zm-2.74-5.05c1.36,0,2.19.92,2.32,2.45h-4.84a2.53,2.53,0,0,1,2.53-2.44Zm4.55.13h1.67v6a2.49,2.49,0,0,0,.11.83,1.67,1.67,0,0,0,1.79.91,6.21,6.21,0,0,0,1.5-.18V26.76a5.37,5.37,0,0,1-1,.11.76.76,0,0,1-.78-.29,1.62,1.62,0,0,1-.13-.82V20.42h1.9V19.28h-1.9V15.84l-1.5.33v3.12h-1.67v1.14ZM161.63,27h-.2a.64.64,0,0,1-.74-.78V21.82c0-2.16-1.27-2.72-3.23-2.72s-3.57.94-3.53,2.88l1.43.16c0-1,.49-1.81,2-1.81s1.83.6,1.83,1.5v.25c0,.36-.18.43-.72.53l-1.45.24A4.8,4.8,0,0,0,154.23,24a2.2,2.2,0,0,0-.53,1.54c0,1.74,1.23,2.59,3,2.59a2.79,2.79,0,0,0,2.61-1.2h0a1.19,1.19,0,0,0,1.45,1.16,4.5,4.5,0,0,0,.85-.07V27Zm-2.39-1.85c0,1.34-1.05,1.83-2.17,1.83a1.56,1.56,0,0,1-1.79-1.5c0-1.05,1-1.27,2-1.49,1.4-.29,1.78-.36,1.92-.42Z"/></g></g></svg>