<svg xmlns="http://www.w3.org/2000/svg" viewBox="0 0 196.19 44.28"><defs><style>.cls-1{fill:#fff;}.cls-2{fill:#55b03e;}</style></defs><title>Stay in Loop</title><g id="Layer_2" data-name="Layer 2"><g id="Page6"><rect id="Rounded_Rectangle_4_copy_5" data-name="Rounded Rectangle 4 copy 5" class="cls-1" width="196.19" height="44.28" rx="22.14" ry="22.14"/><path id="Stay_in_Loop" data-name="Stay in Loop" class="cls-2" d="M55.4,15.5a6.18,6.18,0,0,0-5.15-2.38c-2.6,0-4.85,1.42-4.85,4s1.81,3.19,3.88,3.73l1.73.44c1.81.46,2.9,1,2.9,2.39,0,1.65-1.44,2.46-3.33,2.46a4.66,4.66,0,0,1-4.25-2.31l-1.5,1.06a6.36,6.36,0,0,0,5.65,2.9c3,0,5.33-1.54,5.33-4.21s-1.79-3.35-4.13-4l-1.92-.48c-1.75-.44-2.5-.91-2.5-2.19s1.27-2.2,3-2.2a4.38,4.38,0,0,1,3.81,1.89Zm1.08,3.43H58.4v6.86a2.9,2.9,0,0,0,.13,1,1.92,1.92,0,0,0,2.06,1,7.42,7.42,0,0,0,1.73-.21V26.23a6.47,6.47,0,0,1-1.15.12.87.87,0,0,1-.9-.33,1.88,1.88,0,0,1-.15-.94V18.93h2.19V17.62H60.13v-4L58.4,14v3.58H56.48v1.31Zm16,7.55h-.23a.73.73,0,0,1-.85-.9v-5c0-2.48-1.46-3.13-3.71-3.13s-4.1,1.09-4.06,3.32l1.65.18c0-1.18.56-2.08,2.35-2.08s2.1.69,2.1,1.73v.29c0,.42-.21.5-.83.6l-1.67.28a5.52,5.52,0,0,0-3.25,1.33,2.53,2.53,0,0,0-.6,1.77c0,2,1.42,3,3.44,3a3.21,3.21,0,0,0,3-1.38h0c.06.82.46,1.34,1.67,1.34a5.14,5.14,0,0,0,1-.09v-1.2ZM69.7,24.35c0,1.54-1.21,2.1-2.5,2.1a1.79,1.79,0,0,1-2.06-1.72c0-1.21,1.1-1.46,2.35-1.71,1.6-.34,2-.42,2.21-.48v1.81Zm11.69-6.73H79.66l-2,5.88c-.31.87-.6,1.85-.6,1.85h0s-.27-.9-.54-1.73l-1.94-6H72.7l3.44,10-.44,1.27a2.44,2.44,0,0,1-.54,1,1.64,1.64,0,0,1-1.25.4,7.92,7.92,0,0,1-1.13-.11v1.4a6.72,6.72,0,0,0,1.25.12,2.73,2.73,0,0,0,3-2.1Zm9,0H88.64v9.92h1.73Zm0-4.25H88.64v2.21h1.73Zm11.42,8a4.83,4.83,0,0,0-.62-2.67,3.12,3.12,0,0,0-2.79-1.27,3.46,3.46,0,0,0-3.19,1.71V17.62H93.45v9.92h1.73V21.81a2.66,2.66,0,0,1,2.42-2.89h.21c1.46,0,2.25.71,2.25,2.86v5.77h1.72V21.33Zm17.54,4.56h-7V13.37h-1.85V27.54h8.85Zm.15-3.27c0,3.17,1.9,5.17,4.73,5.17s4.73-2,4.73-5.17-1.94-5.23-4.73-5.23-4.73,2-4.73,5.23Zm1.77,0c0-2.37,1.17-3.79,3-3.79s3,1.39,3,3.79-1.21,3.75-3,3.75-3-1.37-3-3.75Zm9.44,0c0,3.17,1.9,5.17,4.73,5.17s4.73-2,4.73-5.17-1.94-5.23-4.73-5.23-4.73,2-4.73,5.23Zm1.77,0c0-2.37,1.17-3.79,3-3.79s3,1.39,3,3.79-1.21,3.75-3,3.75-3-1.37-3-3.75Zm15.09,5.19c2.52,0,4.31-1.94,4.31-5.19s-1.9-5.21-4.37-5.21a3.51,3.51,0,0,0-3.19,1.69V17.62h-1.73V31.5h1.73V26.08a3.57,3.57,0,0,0,3.25,1.71Zm-3.42-5.23c0-2.5,1.33-3.75,3-3.75s2.92,1.33,2.92,3.75-1.08,3.77-2.87,3.77-3.08-1.25-3.08-3.77Z"/></g></g></svg>